<mxfile host="app.diagrams.net" modified="2024-05-18T18:32:16.396Z" agent="Mozilla/5.0 (Windows NT 10.0; Win64; x64) AppleWebKit/537.36 (KHTML, like Gecko) Chrome/125.0.0.0 Safari/537.36" version="24.4.2" etag="0hmuKRBK045nnjRCdfc8" type="github">
  <diagram name="PÃ¡gina-1" id="VKyrRWLCpMbr9hPBOUOv">
    <mxGraphModel>
      <root>
        <mxCell id="0" />
        <mxCell id="1" parent="0" />
      </root>
    </mxGraphModel>
  </diagram>
</mxfile>
